<?xml version="1.0" encoding="UTF-8" standalone="no"?>
<!-- Created with Inkscape (http://www.inkscape.org/) -->

<svg
   xmlns:dc="http://purl.org/dc/elements/1.1/"
   xmlns:cc="http://creativecommons.org/ns#"
   xmlns:rdf="http://www.w3.org/1999/02/22-rdf-syntax-ns#"
   xmlns:svg="http://www.w3.org/2000/svg"
   xmlns="http://www.w3.org/2000/svg"
   xmlns:sodipodi="http://sodipodi.sourceforge.net/DTD/sodipodi-0.dtd"
   xmlns:inkscape="http://www.inkscape.org/namespaces/inkscape"
   version="1.0"
   width="256.0188"
   height="256.02402"
   id="svg2"
   inkscape:version="0.48.4 r9939"
   sodipodi:docname="cheese.svg">
  <metadata
     id="metadata46">
    <rdf:RDF>
      <cc:Work
         rdf:about="">
        <dc:format>image/svg+xml</dc:format>
        <dc:type
           rdf:resource="http://purl.org/dc/dcmitype/StillImage" />
      </cc:Work>
    </rdf:RDF>
  </metadata>
  <sodipodi:namedview
     pagecolor="#ffffff"
     bordercolor="#666666"
     borderopacity="1"
     objecttolerance="10"
     gridtolerance="10"
     guidetolerance="10"
     inkscape:pageopacity="0"
     inkscape:pageshadow="2"
     inkscape:window-width="1366"
     inkscape:window-height="719"
     id="namedview44"
     showgrid="false"
     inkscape:zoom="0.96859114"
     inkscape:cx="200.60574"
     inkscape:cy="152.59264"
     inkscape:window-x="0"
     inkscape:window-y="25"
     inkscape:window-maximized="1"
     inkscape:current-layer="g2998"
     fit-margin-top="0"
     fit-margin-left="0"
     fit-margin-right="0"
     fit-margin-bottom="0" />
  <defs
     id="defs4" />
  <g
     id="g2998"
     transform="matrix(0,1,-1,0,511.58129,-235.8735)">
    <path
       inkscape:connector-curvature="0"
       style="fill:#d4aa00;fill-opacity:1;fill-rule:evenodd;stroke:#000000;stroke-width:1.60460758;stroke-linecap:butt;stroke-linejoin:round;stroke-miterlimit:4;stroke-opacity:1;stroke-dasharray:none"
       id="path2402"
       d="m 464.15172,281.7661 c 0,0 7.18469,40.05648 -4.76748,66.57366 l -96.41537,161.40235 -25.2429,-45.30114 -65.60294,-117.73166 c -11.03276,-32.81827 -4.76749,-64.94321 -4.76749,-64.94321 0,0 20.65087,-26.41935 97.88056,-26.41935 77.22968,0 98.91562,26.41935 98.91562,26.41935 z"
       sodipodi:nodetypes="ccccccsc" />
    <path
       inkscape:connector-curvature="0"
       style="fill:#ffdd55;fill-opacity:1;fill-rule:evenodd;stroke:#000000;stroke-width:1.60460758;stroke-linecap:butt;stroke-linejoin:round;stroke-miterlimit:4;stroke-opacity:1;stroke-dasharray:none"
       id="path2400"
       d="m 362.96887,428.16566 c 33.72762,-50.03765 93.13918,-153.29051 101.18286,-146.39957 0,-7.61836 -21.68594,-26.41934 -98.91563,-26.41934 -77.22967,0 -97.88056,17.22648 -97.88056,26.41934 9.26026,-7.93317 63.74221,95.81845 95.61333,146.39957 z" />
    <path
       inkscape:connector-curvature="0"
       style="fill:#000000;fill-opacity:0.31372549;fill-rule:nonzero;stroke:none"
       id="path3192"
       d="m 303.62367,361.3903 a 7.84117,14.734449 0 0 1 -15.68234,0 7.84117,14.734449 0 1 1 15.68234,0 z" />
    <path
       inkscape:connector-curvature="0"
       style="fill:#000000;fill-opacity:0.31372549;fill-rule:nonzero;stroke:none"
       id="path3194"
       d="m 322.93189,383.80867 a 9.8114596,4.7097669 78.77895 0 1 -9.19574,2.0503 9.8114596,4.7097669 78.77895 1 1 9.19574,-2.0503 z" />
    <path
       inkscape:connector-curvature="0"
       style="fill:#000000;fill-opacity:0.31372549;fill-rule:nonzero;stroke:none"
       id="path3196"
       d="m 343.50649,430.08818 a 13.723958,6.0946568 79.586973 1 1 -11.83094,3.02918 13.723958,6.0946568 79.586973 0 1 11.83094,-3.02918 z" />
    <path
       inkscape:connector-curvature="0"
       style="fill:#000000;fill-opacity:0.31372549;fill-rule:nonzero;stroke:none"
       id="path3198"
       d="m 282.82465,320.01635 a 5.1957334,11.582145 4.1036125 1 1 -10.24695,-2.12598 5.1957334,11.582145 4.1036125 0 1 10.24695,2.12598 z" />
    <path
       inkscape:connector-curvature="0"
       style="fill:#000000;fill-opacity:0.31372549;fill-rule:nonzero;stroke:none"
       id="path3200"
       d="m 399.8302,419.72901 a 6.8220675,15.438886 4.353982 0 1 -13.49523,-2.31813 6.8220675,15.438886 4.353982 1 1 13.49523,2.31813 z" />
    <path
       inkscape:connector-curvature="0"
       style="fill:#000000;fill-opacity:0.31372549;fill-rule:nonzero;stroke:none"
       id="path3202"
       d="m 445.83448,339.09837 a 6.6240527,15.518239 9.9786936 0 1 -12.32448,-5.87531 6.6240527,15.518239 9.9786936 1 1 12.32448,5.87531 z" />
    <path
       inkscape:connector-curvature="0"
       style="fill:#000000;fill-opacity:0.31372549;fill-rule:nonzero;stroke:none"
       id="path3204"
       d="m 425.87918,382.97506 a 4.8935079,10.603873 4.6520572 1 1 -9.68283,-1.59174 4.8935079,10.603873 4.6520572 0 1 9.68283,1.59174 z" />
    <path
       inkscape:connector-curvature="0"
       style="fill:none;stroke:#000000;stroke-width:1.60460758;stroke-linecap:butt;stroke-linejoin:miter;stroke-miterlimit:4;stroke-opacity:1;stroke-dasharray:none"
       id="path3238"
       d="m 363.02543,427.78265 0,80.86423" />
    <path
       inkscape:connector-curvature="0"
       style="fill:#000000;fill-opacity:0.31372549;fill-rule:nonzero;stroke:none"
       id="path3265"
       d="m 316.84781,375.17105 c -0.1612,0.001 -0.31541,0.011 -0.47404,0.0464 -2.53803,0.56588 -3.72372,5.33365 -2.64107,10.63998 1.08264,5.30632 4.03081,9.1521 6.56884,8.58621 0.57802,-0.12888 1.07682,-0.47649 1.50339,-0.99785 -1.60909,-1.43478 -3.04974,-4.21426 -3.73816,-7.58836 -0.83664,-4.10063 -0.31094,-7.86425 1.1377,-9.63052 -0.7674,-0.68836 -1.57398,-1.06369 -2.35666,-1.05589 z" />
    <path
       inkscape:connector-curvature="0"
       style="fill:#000000;fill-opacity:0.31372549;fill-rule:nonzero;stroke:none"
       id="path3270"
       d="m 278.05134,307.41196 c -2.54193,0.33456 -4.89918,4.71634 -5.46831,10.47394 -0.62801,6.3532 1.15308,11.99113 3.98124,12.57791 1.00462,0.20843 2.00504,-0.26192 2.90726,-1.22156 -1.99079,-1.83896 -3.10468,-6.58237 -2.58752,-11.81431 0.40423,-4.0894 1.71009,-7.47424 3.34386,-9.21881 -0.42665,-0.39412 -0.89458,-0.66005 -1.39371,-0.7636 -0.26515,-0.0549 -0.51987,-0.0682 -0.78282,-0.0336 z" />
    <path
       inkscape:connector-curvature="0"
       style="fill:#000000;fill-opacity:0.31372549;fill-rule:nonzero;stroke:none"
       id="path3275"
       d="m 295.78689,346.65085 c -4.32833,0 -7.84198,6.60243 -7.84198,14.73584 0,8.1334 3.51365,14.73581 7.84198,14.73581 1.24547,0 2.4211,-0.54764 3.46727,-1.51999 -2.58953,-2.40684 -4.37471,-7.42279 -4.37471,-13.21582 0,-5.79305 1.78518,-10.7974 4.37471,-13.20424 -1.04617,-0.97235 -2.2218,-1.5316 -3.46727,-1.5316 z" />
    <path
       inkscape:connector-curvature="0"
       style="fill:#000000;fill-opacity:0.31372549;fill-rule:nonzero;stroke:none"
       id="path3280"
       d="m 335.55206,418.05581 c -0.20787,0.005 -0.41894,0.0405 -0.62302,0.0928 -3.26533,0.83605 -4.72052,7.53915 -3.25056,14.96788 1.46998,7.42873 5.30802,12.77556 8.57337,11.93951 0.90439,-0.23156 1.67218,-0.91473 2.27538,-1.93771 -1.86499,-2.11208 -3.49817,-5.70893 -4.34762,-10.0018 -1.06284,-5.37119 -0.5995,-10.35971 0.97517,-13.03018 -1.16063,-1.31439 -2.40658,-2.05885 -3.60272,-2.03052 z" />
    <path
       inkscape:connector-curvature="0"
       style="fill:#000000;fill-opacity:0.31372549;fill-rule:nonzero;stroke:none"
       id="path3288"
       d="m 441.80475,320.82255 c -1.13891,0.0237 -2.33642,0.71263 -3.46727,1.9261 2.02466,3.13595 2.5298,9.65305 1.00225,16.33704 -1.05601,4.62076 -2.85985,8.35844 -4.83521,10.47752 0.48962,0.75635 1.07221,1.32071 1.73364,1.63604 3.40156,1.62157 7.70505,-3.81017 9.60269,-12.11356 1.89765,-8.30338 0.66568,-16.3515 -2.73588,-17.97307 -0.4252,-0.20269 -0.85338,-0.29938 -1.30022,-0.29007 z" />
    <path
       inkscape:connector-curvature="0"
       style="fill:#000000;fill-opacity:0.31372549;fill-rule:nonzero;stroke:none"
       id="path3292"
       d="m 421.58355,371.60894 c -0.90263,0.0503 -1.78723,0.63459 -2.57335,1.61282 1.36562,2.01888 2.06695,5.70547 1.66592,9.75813 -0.34498,3.4859 -1.42934,6.43332 -2.81717,8.15692 0.59795,0.8895 1.32348,1.4554 2.13996,1.58961 2.67246,0.43932 5.30199,-3.92492 5.87809,-9.74653 0.5761,-5.82162 -1.11986,-10.90843 -3.79231,-11.34775 -0.16703,-0.0275 -0.33489,-0.0325 -0.50114,-0.0231 z" />
    <path
       inkscape:connector-curvature="0"
       style="fill:#000000;fill-opacity:0.31372549;fill-rule:nonzero;stroke:none"
       id="path3297"
       d="m 393.84544,403.16913 c -1.01817,0.0593 -2.02702,0.6329 -2.95259,1.60123 2.25503,2.7056 3.48124,8.51617 2.87133,14.95628 -0.53233,5.62103 -2.32977,10.31052 -4.56433,12.64728 0.71361,0.85601 1.52913,1.40102 2.42438,1.5548 3.72468,0.63981 7.40473,-5.72369 8.20766,-14.20208 0.80292,-8.47837 -1.57101,-15.87128 -5.2957,-16.51109 -0.23279,-0.04 -0.45903,-0.0598 -0.69075,-0.0464 z" />
  </g>
</svg>
