<?xml version="1.0" encoding="UTF-8" standalone="no"?>
<svg
   xmlns:dc="http://purl.org/dc/elements/1.1/"
   xmlns:cc="http://creativecommons.org/ns#"
   xmlns:rdf="http://www.w3.org/1999/02/22-rdf-syntax-ns#"
   xmlns:svg="http://www.w3.org/2000/svg"
   xmlns="http://www.w3.org/2000/svg"
   xmlns:sodipodi="http://sodipodi.sourceforge.net/DTD/sodipodi-0.dtd"
   xmlns:inkscape="http://www.inkscape.org/namespaces/inkscape"
   width="256"
   height="256"
   id="svg2"
   version="1.1"
   inkscape:version="0.48.4 r9939"
   sodipodi:docname="goal.svg">
  <defs
     id="defs17" />
  <sodipodi:namedview
     pagecolor="#ffffff"
     bordercolor="#666666"
     borderopacity="1"
     objecttolerance="10"
     gridtolerance="10"
     guidetolerance="10"
     inkscape:pageopacity="0"
     inkscape:pageshadow="2"
     inkscape:window-width="1366"
     inkscape:window-height="719"
     id="namedview15"
     showgrid="false"
     fit-margin-top="0"
     fit-margin-left="0"
     fit-margin-right="0"
     fit-margin-bottom="0"
     inkscape:zoom="0.98333333"
     inkscape:cx="130.28897"
     inkscape:cy="157.81877"
     inkscape:window-x="0"
     inkscape:window-y="25"
     inkscape:window-maximized="1"
     inkscape:current-layer="g7" />
  <title
     id="title4">Finish Flags</title>
  <metadata
     id="metadata7">image/svg+xmlCheckered flagCheckered flag racing race cars<rdf:RDF>
  <cc:Work
     rdf:about="">
    <dc:format>image/svg+xml</dc:format>
    <dc:type
       rdf:resource="http://purl.org/dc/dcmitype/StillImage" />
  </cc:Work>
</rdf:RDF>
</metadata>
  <g
     id="g7"
     transform="matrix(0.44367914,0,0,0.8784651,-16.860722,-76.570359)">
    <title
       id="title9">Layer 1</title>
    <g
       id="layer1"
       transform="matrix(1.7483839,0,0,1,-460.25282,0)">
      <path
         id="path2396"
         d="m 297.16422,375.81595 c 0.63857,-1.22217 14.88519,-32.03491 31.65899,-68.4726 l 30.49796,-66.25033 6.74221,-3.42131 c 12.16803,-6.17466 26.50162,-9.03513 36.93152,-7.37023 15.70511,2.50696 29.09076,12.37116 52.53089,38.71134 17.1206,19.23886 26.45492,27.18438 37.43966,31.86926 8.38324,3.57538 8.65528,3.62161 21.14826,3.58902 13.95996,-0.0364 19.27307,-1.30179 30.60528,-7.28894 l 5.8465,-3.08887 32.21271,-70.0361 c 17.71704,-38.51985 32.21484,-70.60913 32.21741,-71.30949 0.003,-0.87368 -1.80158,-0.39835 -5.74952,1.51413 -13.73761,6.65501 -27.87017,9.53421 -37.95904,7.73338 -15.66095,-2.79541 -27.97522,-11.80156 -50.72778,-37.10022 -15.2746,-16.98391 -24.7089,-25.828896 -32.35642,-30.335556 -15.823,-9.324463 -35.08185,-9.848373 -54.29114,-1.476891 -7.2265,3.149239 -7.42947,3.18721 -7.42947,1.388397 0,-1.115387 -4.59164,-2.771515 -7.99942,-2.885239 -0.76401,-0.02557 -131.19711,281.849169 -131.19711,283.525809 0,0.3537 1.18716,0.90042 2.63824,1.21487 1.45102,0.31452 3.41245,0.82837 4.35871,1.14188 1.13339,0.37555 2.11657,-0.1882 2.88156,-1.65231 z m 201.69534,-74.52457 c -3.00559,-0.98614 -8.672,-3.76932 -12.59201,-6.18475 l -7.12735,-4.39173 1.83468,-3.98944 c 1.00907,-2.19415 3.85697,-8.34637 6.32871,-13.67154 l 4.49402,-9.68219 6.52563,4.24128 c 6.4646,4.20181 16.12006,8.02484 20.26709,8.02484 1.18299,0 2.15088,0.49301 2.15088,1.09555 0,0.6026 -2.55017,6.7781 -5.66711,13.72336 -6.3905,14.23944 -6.20844,14.1177 -16.21454,10.83462 z m 22.97772,-25.18927 c 0,-0.26514 2.71265,-6.31897 6.0282,-13.453 3.31549,-7.13397 6.0282,-13.27521 6.0282,-13.64716 0,-0.37207 -2.83594,-1.38312 -6.30219,-2.24692 -6.67468,-1.6633 -11.44842,-3.84149 -17.96832,-8.19848 -2.1966,-1.46791 -4.23932,-2.66895 -4.53937,-2.66895 -0.29999,0 -3.13922,5.6431 -6.30927,12.54026 -3.1701,6.89712 -6.22692,12.96612 -6.79303,13.48669 -1.15878,1.0657 -6.97363,-4.20242 -17.49789,-15.85278 -3.64426,-4.03418 -6.73047,-7.33483 -6.85815,-7.33483 -0.12769,0 -2.85923,5.74953 -6.07007,12.77684 -3.21088,7.02725 -6.22183,12.77686 -6.69107,12.77686 -0.46921,0 -3.20413,-2.66187 -6.07761,-5.91522 -2.87353,-3.25339 -8.10177,-8.52536 -11.61835,-11.71552 l -6.39389,-5.80032 5.35645,-11.7087 c 2.94598,-6.4398 5.69675,-12.528 6.1127,-13.52932 0.67804,-1.63201 1.27432,-1.38687 5.75681,2.36612 2.75024,2.30264 8.19918,7.70025 12.10876,11.99469 3.90955,4.29449 7.27622,7.80812 7.48142,7.80812 0.2052,0 3.17984,-6.19789 6.61022,-13.77306 3.43049,-7.57519 6.36609,-13.64424 6.52363,-13.48671 0.15759,0.1575 4.22647,4.54536 9.04196,9.75073 4.8154,5.2054 10.21478,10.64287 11.99847,12.0833 l 3.24323,2.61902 5.80444,-13.02976 c 3.19244,-7.16639 6.20306,-13.40318 6.69037,-13.85965 0.48913,-0.45822 3.02826,0.68592 5.669,2.55455 5.31183,3.75846 14.84919,7.88239 20.31202,8.78281 1.95923,0.32295 3.56213,0.87436 3.56213,1.22536 0,0.35096 -2.71265,6.47505 -6.02814,13.60905 -3.31561,7.13397 -6.02826,13.18784 -6.02826,13.45297 0,1.01471 10.7782,0.41953 16.75769,-0.92532 3.44184,-0.77414 9.71064,-2.90893 13.93073,-4.74411 4.22009,-1.83508 7.67285,-3.20477 7.67285,-3.04367 0,0.16101 -2.84357,6.44833 -6.31909,13.97174 l -6.31915,13.67899 -8.20331,3.5394 c -4.51178,1.94668 -10.91608,4.15463 -14.23151,4.90649 -5.86352,1.32971 -16.44061,1.97919 -16.44061,1.00949 z M 368.44382,223.93776 c 3.09417,-6.70128 6.16693,-12.7498 6.8284,-13.44109 1.84527,-1.92836 10.38382,-5.40727 18.71838,-7.62648 8.48737,-2.2599 19.9227,-2.75137 19.02377,-0.81758 -0.30249,0.65068 -3.15301,6.82617 -6.33447,13.72328 l -5.78455,12.54026 -6.81973,0 c -7.3609,0 -17.72152,2.45596 -25.68335,6.08822 -2.71268,1.23758 -5.07657,2.13028 -5.25311,1.98387 -0.17648,-0.14645 2.21063,-5.74917 5.30466,-12.45048 z m 180.19797,-4.38024 c -0.29017,-0.65295 2.14416,-6.93493 5.40954,-13.95996 3.26544,-7.02496 5.70868,-13.09211 5.4295,-13.48253 -0.27923,-0.39042 -1.19995,-0.7098 -2.04589,-0.7098 -3.59815,0 -14.10633,-4.21199 -20.24738,-8.11573 -6.54346,-4.15959 -6.63763,-4.18522 -7.58044,-2.07037 -4.04553,9.07396 -11.49915,24.94408 -11.89618,25.32906 -0.62415,0.6052 -8.42883,-6.92359 -16.91205,-16.31438 -3.63849,-4.02773 -6.97208,-7.13286 -7.40808,-6.90022 -0.43582,0.23266 -3.40002,6.20762 -6.58691,13.27777 -3.18692,7.07017 -6.15213,12.73069 -6.58924,12.57888 -0.43722,-0.15182 -4.76077,-4.53494 -9.60794,-9.74032 -4.8472,-5.2054 -10.08459,-10.48462 -11.63876,-11.73165 l -2.82572,-2.26721 -1.02032,2.26721 c -0.56119,1.24703 -3.31003,7.36077 -6.10861,13.58611 -2.79853,6.22537 -5.26529,11.47166 -5.48172,11.65854 -0.2164,0.18686 -2.7847,-1.24443 -5.70731,-3.1807 -5.60061,-3.7104 -15.58734,-7.95625 -18.77151,-7.98071 -5.27817,-0.0406 -5.17798,-1.17784 1.34506,-15.26863 3.4584,-7.4707 6.38846,-13.6739 6.51117,-13.78488 0.12274,-0.11098 2.66626,0.35646 5.6524,1.03872 6.72489,1.53647 12.89826,4.23214 18.45828,8.06003 2.34348,1.61339 4.56296,2.92998 4.93219,2.92581 0.36921,-0.004 3.33579,-5.86022 6.59238,-13.01345 3.25656,-7.15322 6.10288,-13.19223 6.32511,-13.42003 0.73361,-0.75183 10.30917,7.85963 17.03585,15.32051 3.63718,4.03418 6.96415,7.33488 7.39325,7.33488 0.42911,0 3.41806,-5.77316 6.64209,-12.82927 3.22406,-7.05604 6.15595,-12.98617 6.51538,-13.17797 0.35944,-0.19191 4.18152,3.55827 8.49341,8.33361 7.8252,8.66632 15.27887,15.54265 16.00959,14.76964 0.21246,-0.22473 3.01269,-6.15811 6.2229,-13.18541 3.21014,-7.02727 5.96533,-12.92171 6.12256,-13.09881 0.15722,-0.17708 2.91302,1.36734 6.12396,3.43199 7.52447,4.83827 9.98712,5.92457 17.51208,7.72464 l 6.19391,1.48164 -5.91986,12.73634 c -3.25592,7.00499 -5.91986,13.33376 -5.91986,14.06382 0,1.07264 1.39032,1.19891 7.24316,0.65765 8.10962,-0.74988 15.77918,-2.81464 24.29248,-6.53979 3.15125,-1.37893 5.72956,-2.14487 5.72956,-1.70214 0,2.68938 -11.43427,25.57129 -13.61939,27.25473 -7.19946,5.54659 -34.75842,12.10811 -36.29864,8.64238 z m -154.24088,-51.91131 6.32449,-13.62512 6.7923,-3.10184 c 11.19132,-5.11073 31.02097,-8.70229 31.02097,-5.61853 0,0.66946 -2.66373,6.95142 -5.91935,13.9599 l -5.91934,12.74271 -7.16717,0.62611 c -8.90488,0.77791 -17.00473,2.86638 -24.83557,6.40376 -3.31552,1.49767 -6.16159,2.61396 -6.3245,2.48062 -0.16302,-0.13336 2.54966,-6.37375 6.02817,-13.86761 z m 60.68707,-18.75595 c -2.16964,-0.94123 -5.91784,-2.22714 -8.3291,-2.85765 -2.41128,-0.63051 -4.9693,-1.30327 -5.68445,-1.49494 -0.86224,-0.23108 0.73786,-4.74978 4.75049,-13.41478 3.32791,-7.18644 6.4867,-13.45729 7.01941,-13.93512 2.24747,-2.01588 15.78873,2.98816 26.03024,9.6193 l 3.28266,2.12544 6.01086,-12.97238 c 3.306,-7.13478 6.53528,-13.12333 7.17633,-13.30781 1.09201,-0.31432 18.58252,17.17835 22.04315,22.0459 1.45472,2.04613 1.11658,3.23092 -4.31292,15.11408 -3.24036,7.09163 -6.17523,13.04535 -6.5221,13.23048 -0.34692,0.18511 -4.30584,-3.67552 -8.79779,-8.57913 -8.27585,-9.03422 -15.02127,-15.2569 -15.7312,-14.51195 -0.32205,0.33789 -8.32944,17.48566 -11.7962,25.26143 -0.95255,2.13651 -0.95826,2.13535 -6.07392,-1.23654 -2.81625,-1.85629 -6.89572,-4.14514 -9.06546,-5.08633 z m -40.66217,-24.19315 c 0,-0.25169 2.48932,-5.89482 5.53174,-12.54025 6.27078,-13.696626 7.49942,-14.91565 19.33734,-19.18525 7.42835,-2.679222 23.74283,-5.655975 25.00852,-4.563034 0.31897,0.275429 -2.24756,6.739471 -5.7034,14.364564 l -6.2833,13.86381 -6.61508,0.0127 c -6.90942,0.0132 -21.89395,3.86171 -26.95529,6.92295 -2.58405,1.56287 -4.32053,2.01485 -4.32053,1.12456 z"
         inkscape:connector-curvature="0"
         style="fill:#000000" />
    </g>
  </g>
</svg>
