<?xml version="1.0" encoding="UTF-8" standalone="no"?>
<!-- Created with Inkscape (http://www.inkscape.org/) -->

<svg
   xmlns:dc="http://purl.org/dc/elements/1.1/"
   xmlns:cc="http://creativecommons.org/ns#"
   xmlns:rdf="http://www.w3.org/1999/02/22-rdf-syntax-ns#"
   xmlns:svg="http://www.w3.org/2000/svg"
   xmlns="http://www.w3.org/2000/svg"
   xmlns:sodipodi="http://sodipodi.sourceforge.net/DTD/sodipodi-0.dtd"
   xmlns:inkscape="http://www.inkscape.org/namespaces/inkscape"
   version="1.0"
   width="255.99843"
   height="256.1554"
   id="svg2"
   inkscape:version="0.48.4 r9939"
   sodipodi:docname="mouse_bfs.svg">
  <metadata
     id="metadata46">
    <rdf:RDF>
      <cc:Work
         rdf:about="">
        <dc:format>image/svg+xml</dc:format>
        <dc:type
           rdf:resource="http://purl.org/dc/dcmitype/StillImage" />
      </cc:Work>
    </rdf:RDF>
  </metadata>
  <sodipodi:namedview
     pagecolor="#ffffff"
     bordercolor="#666666"
     borderopacity="1"
     objecttolerance="10"
     gridtolerance="10"
     guidetolerance="10"
     inkscape:pageopacity="0"
     inkscape:pageshadow="2"
     inkscape:window-width="1366"
     inkscape:window-height="719"
     id="namedview44"
     showgrid="false"
     inkscape:zoom="1.3697947"
     inkscape:cx="8.0873245"
     inkscape:cy="150.13553"
     inkscape:window-x="0"
     inkscape:window-y="25"
     inkscape:window-maximized="1"
     inkscape:current-layer="g3002"
     fit-margin-top="0"
     fit-margin-left="0"
     fit-margin-right="0"
     fit-margin-bottom="0" />
  <defs
     id="defs4" />
  <g
     id="g3002">
    <path
       inkscape:connector-curvature="0"
       style="fill:#10b546;fill-opacity:1;fill-rule:evenodd;stroke:#000000;stroke-width:3.12091398000000009;stroke-linecap:butt;stroke-linejoin:miter;stroke-miterlimit:4;stroke-opacity:1;stroke-dasharray:none"
       id="path3264"
       d="m 175.93462,40.855899 c -1.46281,-18.30635 -60.46257,-67.2882 -112.148331,-17.81158 -51.685746,49.47662 -56.0741623,26.22261 -60.9501732,27.21214 -4.8760182,0.98953 4.8532384,11.7053 18.5288462,9.89532 33.644499,-4.45289 56.074167,-47.00279 87.280658,-46.50802 31.44551,0.49855 48.27255,28.20167 48.27255,28.20167 l 19.01645,-0.98953 z" />
    <path
       inkscape:connector-curvature="0"
       style="fill:#000000;fill-opacity:0.31372549;fill-rule:evenodd;stroke:none"
       id="path2407"
       d="M 108.5948,8.7812795 C 94.610642,8.9452795 79.479307,14.534099 65.001652,29.264839 51.67176,42.827759 41.858088,50.617269 34.527615,54.906129 l 0,1.52276 c 26.743851,-11.51257 47.159587,-43.21198 74.115585,-42.78461 31.44552,0.49855 48.26469,28.19561 48.26469,28.19561 l 7.30991,-0.36842 C 158.57636,28.511009 135.72555,8.4631095 108.5948,8.7812795 z" />
    <path
       inkscape:connector-curvature="0"
       style="fill:#10b546;fill-opacity:1;fill-rule:nonzero;stroke:#000000;stroke-width:3.12091398000000009;stroke-linecap:round;stroke-linejoin:miter;stroke-miterlimit:4;stroke-opacity:1;stroke-dasharray:none"
       id="path2383"
       d="m 245.66162,119.02896 c 0,44.7902 -47.88143,127.15492 -79.96664,127.15492 -32.98447,0 -79.966633,-82.36472 -79.966633,-127.15492 0,-44.790201 35.825053,-81.141661 79.966633,-81.141661 44.14159,0 79.96664,36.35146 79.96664,81.141661 z" />
    <path
       inkscape:connector-curvature="0"
       style="fill:#000000;fill-opacity:0.31372549;fill-rule:nonzero;stroke:none"
       id="path3397"
       d="m 244.58656,105.78181 c 0.19232,2.294 0.29046,4.60643 0.29046,6.95066 -10e-6,44.79019 -47.86378,127.17492 -79.94899,127.17492 -30.08379,0 -71.825898,-68.51794 -78.93237,-114.55076 3.958799,45.77868 48.22263,120.83828 79.70694,120.83829 32.0852,0 79.94897,-82.38474 79.94898,-127.17493 0,-4.51042 -0.36653,-8.92741 -1.06502,-13.23818 z" />
    <path
       inkscape:connector-curvature="0"
       style="fill:#10b546;fill-opacity:1;fill-rule:nonzero;stroke:#000000;stroke-width:3.12091398000000009;stroke-linecap:round;stroke-linejoin:miter;stroke-miterlimit:4;stroke-opacity:1;stroke-dasharray:none"
       id="path2386"
       d="m 221.27718,183.14778 c 18.61281,-1.85846 33.1608,-17.78804 33.1608,-37.16022 0,-20.61988 -16.49447,-37.35674 -36.81575,-37.35672 -20.32127,0 -36.81576,16.73682 -36.81574,37.35672 0,1.44929 0.0835,2.89167 0.24205,4.29811" />
    <path
       inkscape:connector-curvature="0"
       style="fill:#10b546;fill-opacity:1;fill-rule:nonzero;stroke:#000000;stroke-width:3.12091398000000009;stroke-linecap:round;stroke-linejoin:miter;stroke-miterlimit:4;stroke-opacity:1;stroke-dasharray:none"
       id="path2388"
       d="m 147.83933,150.7032 c 0.19134,-1.54188 0.29047,-3.12139 0.29047,-4.71564 0,-20.61988 -16.47027,-37.35674 -36.79154,-37.35672 -20.321284,0 -36.815759,16.73682 -36.815752,37.35672 0,19.85008 15.270017,36.0974 34.540482,37.28303" />
    <path
       inkscape:connector-curvature="0"
       style="fill:#000000;fill-opacity:1;fill-rule:nonzero;stroke:none"
       id="path2390"
       d="m 174.53636,229.17185 c 0,4.81561 -5.68099,10.58007 -8.59757,10.58007 -3.28245,0 -8.59758,-5.76446 -8.59758,-10.58007 0,-4.81559 3.85171,-4.26913 8.59758,-4.26913 4.74585,0 8.59757,-0.54646 8.59757,4.26913 z" />
    <path
       inkscape:connector-curvature="0"
       style="fill:#000000;fill-opacity:1;fill-rule:nonzero;stroke:#000000;stroke-width:1.56045699;stroke-linecap:round;stroke-linejoin:miter;stroke-miterlimit:4;stroke-opacity:1;stroke-dasharray:none"
       id="path2397"
       d="m 148.62894,196.95465 c 0.001,4.51005 -2.72778,8.16722 -6.09502,8.16722 -3.36723,0 -6.09649,-3.65717 -6.09501,-8.16722 -0.001,-4.51006 2.72778,-8.16722 6.09501,-8.16722 3.36724,0 6.0965,3.65716 6.09502,8.16722 z" />
    <path
       inkscape:connector-curvature="0"
       style="fill:#000000;fill-opacity:1;fill-rule:nonzero;stroke:#000000;stroke-width:1.56045699;stroke-linecap:round;stroke-linejoin:miter;stroke-miterlimit:4;stroke-opacity:1;stroke-dasharray:none"
       id="path2399"
       d="m 192.51307,196.95465 c 0.001,4.51005 -2.72779,8.16722 -6.09503,8.16722 -3.36723,0 -6.09649,-3.65717 -6.095,-8.16722 -0.001,-4.51006 2.72777,-8.16722 6.095,-8.16722 3.36724,0 6.09651,3.65716 6.09503,8.16722 z" />
    <path
       inkscape:connector-curvature="0"
       style="fill:#ffffff;fill-opacity:1;fill-rule:nonzero;stroke:none"
       id="path2401"
       d="m 144.97193,195.05631 c 7.3e-4,1.54819 -0.76361,2.8038 -1.7066,2.8038 -0.94298,0 -1.70725,-1.25561 -1.7066,-2.8038 -7.4e-4,-1.54819 0.76362,-2.80381 1.7066,-2.80381 0.94299,0 1.70723,1.25562 1.7066,2.80381 l 0,0 z" />
    <path
       inkscape:connector-curvature="0"
       style="fill:#ffffff;fill-opacity:1;fill-rule:nonzero;stroke:none"
       id="path2403"
       d="m 187.63705,195.79845 c 7.3e-4,1.5482 -0.76361,2.80381 -1.7066,2.80381 -0.94298,0 -1.70724,-1.25561 -1.7066,-2.80381 -7.3e-4,-1.54819 0.76362,-2.80381 1.7066,-2.80381 0.94299,0 1.70723,1.25562 1.7066,2.80381 l 0,0 z" />
    <path
       inkscape:connector-curvature="0"
       style="fill:#000000;fill-opacity:0.31372549;fill-rule:nonzero;stroke:none"
       id="path2427"
       d="m 217.71905,113.93594 c -13.81007,0.1974 -26.61197,11.07786 -29.91733,24.56063 6.49136,-4.33304 14.63768,-6.9261 23.47882,-6.9261 17.76875,-1e-5 32.71816,10.43035 37.082,24.56063 6.94951,-18.8287 -8.95515,-42.33185 -29.04596,-42.1706 -0.53462,-0.0246 -1.06538,-0.0322 -1.59753,-0.0245 z" />
    <g
       style="stroke:#000000;stroke-width:2.85966969;stroke-linecap:round;stroke-miterlimit:4;stroke-opacity:1;stroke-dasharray:none"
       id="g3221"
       transform="matrix(1.0779845,0,0,1.1048912,-185.29914,-518.6412)">
      <path
         inkscape:connector-curvature="0"
         style="fill:none;stroke:#000000;stroke-width:2.85966969;stroke-linecap:round;stroke-linejoin:miter;stroke-miterlimit:4;stroke-opacity:1;stroke-dasharray:none"
         id="path2445"
         d="m 340.57116,672.76068 c 32.73512,-15.10851 47.84364,-1.25904 47.84364,-1.25904" />
      <path
         inkscape:connector-curvature="0"
         style="fill:none;stroke:#000000;stroke-width:2.85966969;stroke-linecap:round;stroke-linejoin:miter;stroke-miterlimit:4;stroke-opacity:1;stroke-dasharray:none"
         id="path2447"
         d="m 337.42356,678.42638 c 23.92181,-15.10852 44.69602,9.44282 44.69602,9.44282" />
      <path
         inkscape:connector-curvature="0"
         style="fill:none;stroke:#000000;stroke-width:2.85966969;stroke-linecap:round;stroke-linejoin:miter;stroke-miterlimit:4;stroke-opacity:1;stroke-dasharray:none"
         id="path2449"
         d="m 337.42356,681.57398 c 25.18086,-12.59043 29.58751,18.25613 29.58751,18.25613" />
    </g>
    <g
       style="stroke:#000000;stroke-width:2.85966969;stroke-linecap:round;stroke-miterlimit:4;stroke-opacity:1;stroke-dasharray:none"
       id="g3384"
       transform="matrix(-1.0779845,0,0,1.1048912,516.68912,-518.6412)">
      <path
         inkscape:connector-curvature="0"
         style="fill:none;stroke:#000000;stroke-width:2.85966969;stroke-linecap:round;stroke-linejoin:miter;stroke-miterlimit:4;stroke-opacity:1;stroke-dasharray:none"
         id="path3386"
         d="m 340.57116,672.76068 c 32.73512,-15.10851 47.84364,-1.25904 47.84364,-1.25904" />
      <path
         inkscape:connector-curvature="0"
         style="fill:none;stroke:#000000;stroke-width:2.85966969;stroke-linecap:round;stroke-linejoin:miter;stroke-miterlimit:4;stroke-opacity:1;stroke-dasharray:none"
         id="path3388"
         d="m 337.42356,678.42638 c 23.92181,-15.10852 44.69602,9.44282 44.69602,9.44282" />
      <path
         inkscape:connector-curvature="0"
         style="fill:none;stroke:#000000;stroke-width:2.85966969;stroke-linecap:round;stroke-linejoin:miter;stroke-miterlimit:4;stroke-opacity:1;stroke-dasharray:none"
         id="path3390"
         d="m 337.42356,681.57398 c 25.18086,-12.59043 29.58751,18.25613 29.58751,18.25613" />
    </g>
    <path
       inkscape:connector-curvature="0"
       style="fill:#000000;fill-opacity:0.31372549;fill-rule:nonzero;stroke:none"
       id="path3405"
       d="m 112.75437,113.93594 c 13.81006,0.1974 26.61197,11.07786 29.91732,24.56063 -6.49134,-4.33304 -14.63768,-6.9261 -23.4788,-6.9261 -17.76877,-1e-5 -32.718178,10.43035 -37.082005,24.56063 -6.949522,-18.8287 8.955143,-42.33185 29.045955,-42.1706 0.53462,-0.0246 1.06538,-0.0322 1.59753,-0.0245 z" />
  </g>
</svg>
