<?xml version="1.0" encoding="UTF-8" standalone="no"?>
<!-- Created with Inkscape (http://www.inkscape.org/) -->

<svg
   xmlns:dc="http://purl.org/dc/elements/1.1/"
   xmlns:cc="http://creativecommons.org/ns#"
   xmlns:rdf="http://www.w3.org/1999/02/22-rdf-syntax-ns#"
   xmlns:svg="http://www.w3.org/2000/svg"
   xmlns="http://www.w3.org/2000/svg"
   xmlns:xlink="http://www.w3.org/1999/xlink"
   xmlns:sodipodi="http://sodipodi.sourceforge.net/DTD/sodipodi-0.dtd"
   xmlns:inkscape="http://www.inkscape.org/namespaces/inkscape"
   width="256.41223"
   height="255.64363"
   id="svg2"
   sodipodi:version="0.32"
   inkscape:version="0.48.4 r9939"
   sodipodi:docname="poison.svg"
   version="1.0"
   inkscape:output_extension="org.inkscape.output.svg.inkscape"
   inkscape:export-filename="C:\joanna\Gfx\drawings_vector\admin\thuPoison_Bottle.png"
   inkscape:export-xdpi="16.5"
   inkscape:export-ydpi="16.5">
  <defs
     id="defs4">
    <inkscape:perspective
       sodipodi:type="inkscape:persp3d"
       inkscape:vp_x="0 : 350 : 1"
       inkscape:vp_y="0 : 1000 : 0"
       inkscape:vp_z="300 : 350 : 1"
       inkscape:persp3d-origin="150 : 233.33333 : 1"
       id="perspective108" />
    <linearGradient
       inkscape:collect="always"
       id="linearGradient4384">
      <stop
         style="stop-color:white;stop-opacity:1;"
         offset="0"
         id="stop4386" />
      <stop
         style="stop-color:white;stop-opacity:0;"
         offset="1"
         id="stop4388" />
    </linearGradient>
    <linearGradient
       inkscape:collect="always"
       id="linearGradient3636">
      <stop
         style="stop-color:white;stop-opacity:1;"
         offset="0"
         id="stop3638" />
      <stop
         style="stop-color:white;stop-opacity:0;"
         offset="1"
         id="stop3640" />
    </linearGradient>
    <linearGradient
       inkscape:collect="always"
       id="linearGradient3436">
      <stop
         style="stop-color:white;stop-opacity:1;"
         offset="0"
         id="stop3438" />
      <stop
         style="stop-color:white;stop-opacity:0;"
         offset="1"
         id="stop3440" />
    </linearGradient>
    <linearGradient
       id="linearGradient11719">
      <stop
         style="stop-color:black;stop-opacity:0;"
         offset="0"
         id="stop11721" />
      <stop
         style="stop-color:black;stop-opacity:0;"
         offset="0.60000002"
         id="stop11723" />
      <stop
         style="stop-color:black;stop-opacity:1;"
         offset="1"
         id="stop11725" />
    </linearGradient>
    <linearGradient
       id="linearGradient1400">
      <stop
         id="stop1401"
         offset="0.0000000"
         style="stop-color:#000000;stop-opacity:0.67843139;" />
      <stop
         id="stop1403"
         offset="0.56999999"
         style="stop-color:#000000;stop-opacity:0.32941177;" />
      <stop
         id="stop1402"
         offset="1.0000000"
         style="stop-color:#000000;stop-opacity:0.00000000;" />
    </linearGradient>
    <radialGradient
       inkscape:collect="always"
       xlink:href="#linearGradient11719"
       id="radialGradient34262"
       gradientUnits="userSpaceOnUse"
       gradientTransform="matrix(1.764071,-0.472682,0.402006,1.500308,-403.4924,65.6368)"
       cx="505.31256"
       cy="340.95706"
       fx="505.31256"
       fy="340.95706"
       r="17.921875" />
    <radialGradient
       inkscape:collect="always"
       xlink:href="#linearGradient11719"
       id="radialGradient34264"
       gradientUnits="userSpaceOnUse"
       gradientTransform="matrix(2.608353,-0.199311,0.267975,3.506613,-785.234,-991.5065)"
       cx="496.43933"
       cy="432.82205"
       fx="496.43933"
       fy="432.82205"
       r="28.91695" />
    <radialGradient
       inkscape:collect="always"
       xlink:href="#linearGradient11719"
       id="radialGradient34266"
       gradientUnits="userSpaceOnUse"
       gradientTransform="matrix(2.644591,-0.209602,0.645236,8.141091,-937.713,-2444.392)"
       cx="499.6232"
       cy="357.74594"
       fx="499.6232"
       fy="357.74594"
       r="13.046875" />
    <radialGradient
       inkscape:collect="always"
       xlink:href="#linearGradient11719"
       id="radialGradient34268"
       gradientUnits="userSpaceOnUse"
       gradientTransform="matrix(2.168879,-0.581149,0.402005,1.500308,-608.9661,120.693)"
       cx="507.58319"
       cy="332.63242"
       fx="507.58319"
       fy="332.63242"
       r="17.921875" />
    <radialGradient
       inkscape:collect="always"
       xlink:href="#linearGradient11719"
       id="radialGradient34270"
       gradientUnits="userSpaceOnUse"
       gradientTransform="matrix(-1.357065e-6,-2.245389,1.428744,0,150.3945,1464.484)"
       cx="504.93213"
       cy="332.63242"
       fx="504.93213"
       fy="332.63242"
       r="17.921875" />
    <radialGradient
       inkscape:collect="always"
       xlink:href="#linearGradient11719"
       id="radialGradient34272"
       gradientUnits="userSpaceOnUse"
       gradientTransform="matrix(0.811906,-1.666867,1.840211,0.89634,-397.6625,877.4628)"
       cx="508.92856"
       cy="327.40497"
       fx="508.92856"
       fy="327.40497"
       r="17.921875" />
    <radialGradient
       inkscape:collect="always"
       xlink:href="#linearGradient11719"
       id="radialGradient34274"
       gradientUnits="userSpaceOnUse"
       gradientTransform="matrix(0,-0.990564,1.342203,7.690632e-7,189.5371,835.2587)"
       cx="506.72284"
       cy="326.56235"
       fx="506.72284"
       fy="326.56235"
       r="17.921875" />
    <linearGradient
       inkscape:collect="always"
       xlink:href="#linearGradient1400"
       id="linearGradient34276"
       gradientUnits="userSpaceOnUse"
       gradientTransform="translate(120,0)"
       x1="502.01923"
       y1="353.44644"
       x2="504.57285"
       y2="323.71451" />
    <radialGradient
       inkscape:collect="always"
       xlink:href="#linearGradient11719"
       id="radialGradient34278"
       gradientUnits="userSpaceOnUse"
       gradientTransform="matrix(0,-0.962233,1.303815,7.470678e-7,202.5558,821.6553)"
       cx="521.02045"
       cy="324.50958"
       fx="521.02045"
       fy="324.50958"
       r="17.921875" />
    <radialGradient
       inkscape:collect="always"
       xlink:href="#linearGradient1400"
       id="radialGradient34280"
       gradientUnits="userSpaceOnUse"
       gradientTransform="matrix(0,-0.566652,0.923271,0,319.4234,615.1804)"
       cx="508.64053"
       cy="331.66568"
       fx="508.64053"
       fy="331.66568"
       r="17.921875" />
    <radialGradient
       inkscape:collect="always"
       xlink:href="#linearGradient11719"
       id="radialGradient34282"
       gradientUnits="userSpaceOnUse"
       gradientTransform="matrix(2.909122,-5.066007e-7,0,9.289037,-840.4361,-2963.821)"
       cx="508.4433"
       cy="359.51443"
       fx="508.4433"
       fy="359.51443"
       r="13.046875" />
    <linearGradient
       inkscape:collect="always"
       xlink:href="#linearGradient3436"
       id="linearGradient34284"
       gradientUnits="userSpaceOnUse"
       gradientTransform="matrix(0.953057,0,0,1,69.01573,0)"
       x1="433.47342"
       y1="377.49115"
       x2="611.57281"
       y2="377.49115" />
    <linearGradient
       inkscape:collect="always"
       xlink:href="#linearGradient3636"
       id="linearGradient34286"
       gradientUnits="userSpaceOnUse"
       gradientTransform="matrix(0.953057,0,0,1,69.01573,0)"
       x1="573.27661"
       y1="-2.6483843"
       x2="573.27661"
       y2="541.64832" />
    <linearGradient
       inkscape:collect="always"
       xlink:href="#linearGradient4384"
       id="linearGradient34288"
       gradientUnits="userSpaceOnUse"
       gradientTransform="translate(40,0)"
       x1="659.43481"
       y1="530.42657"
       x2="575.83997"
       y2="444.69376" />
    <radialGradient
       inkscape:collect="always"
       xlink:href="#linearGradient11719"
       id="radialGradient34290"
       gradientUnits="userSpaceOnUse"
       gradientTransform="matrix(0,-7.961748,2.241016,-3.040753e-5,-341.8419,4380.83)"
       cx="497.21848"
       cy="439.83148"
       fx="497.21848"
       fy="439.83148"
       r="28.91695" />
    <radialGradient
       inkscape:collect="always"
       xlink:href="#linearGradient11719"
       id="radialGradient34292"
       gradientUnits="userSpaceOnUse"
       gradientTransform="matrix(0.388834,-6.370872,2.25698,0.137725,-542.2852,3529.604)"
       cx="494.12335"
       cy="423.26047"
       fx="494.12335"
       fy="423.26047"
       r="28.91695" />
    <radialGradient
       inkscape:collect="always"
       xlink:href="#linearGradient11719"
       id="radialGradient2445"
       gradientUnits="userSpaceOnUse"
       gradientTransform="matrix(1.764071,-0.472682,0.402006,1.500308,-403.4924,65.6368)"
       cx="505.31256"
       cy="340.95706"
       fx="505.31256"
       fy="340.95706"
       r="17.921875" />
    <radialGradient
       inkscape:collect="always"
       xlink:href="#linearGradient11719"
       id="radialGradient2447"
       gradientUnits="userSpaceOnUse"
       gradientTransform="matrix(2.608353,-0.199311,0.267975,3.506613,-785.234,-991.5065)"
       cx="496.43933"
       cy="432.82205"
       fx="496.43933"
       fy="432.82205"
       r="28.91695" />
    <radialGradient
       inkscape:collect="always"
       xlink:href="#linearGradient11719"
       id="radialGradient2449"
       gradientUnits="userSpaceOnUse"
       gradientTransform="matrix(2.644591,-0.209602,0.645236,8.141091,-937.713,-2444.392)"
       cx="499.6232"
       cy="357.74594"
       fx="499.6232"
       fy="357.74594"
       r="13.046875" />
    <radialGradient
       inkscape:collect="always"
       xlink:href="#linearGradient11719"
       id="radialGradient2451"
       gradientUnits="userSpaceOnUse"
       gradientTransform="matrix(2.168879,-0.581149,0.402005,1.500308,-608.9661,120.693)"
       cx="507.58319"
       cy="332.63242"
       fx="507.58319"
       fy="332.63242"
       r="17.921875" />
    <radialGradient
       inkscape:collect="always"
       xlink:href="#linearGradient11719"
       id="radialGradient2453"
       gradientUnits="userSpaceOnUse"
       gradientTransform="matrix(-1.357065e-6,-2.245389,1.428744,0,150.3945,1464.484)"
       cx="504.93213"
       cy="332.63242"
       fx="504.93213"
       fy="332.63242"
       r="17.921875" />
    <radialGradient
       inkscape:collect="always"
       xlink:href="#linearGradient11719"
       id="radialGradient2455"
       gradientUnits="userSpaceOnUse"
       gradientTransform="matrix(0.811906,-1.666867,1.840211,0.89634,-397.6625,877.4628)"
       cx="508.92856"
       cy="327.40497"
       fx="508.92856"
       fy="327.40497"
       r="17.921875" />
    <radialGradient
       inkscape:collect="always"
       xlink:href="#linearGradient11719"
       id="radialGradient2457"
       gradientUnits="userSpaceOnUse"
       gradientTransform="matrix(0,-0.990564,1.342203,7.690632e-7,189.5371,835.2587)"
       cx="506.72284"
       cy="326.56235"
       fx="506.72284"
       fy="326.56235"
       r="17.921875" />
    <linearGradient
       inkscape:collect="always"
       xlink:href="#linearGradient1400"
       id="linearGradient2459"
       gradientUnits="userSpaceOnUse"
       gradientTransform="translate(120,0)"
       x1="502.01923"
       y1="353.44644"
       x2="504.57285"
       y2="323.71451" />
    <radialGradient
       inkscape:collect="always"
       xlink:href="#linearGradient11719"
       id="radialGradient2461"
       gradientUnits="userSpaceOnUse"
       gradientTransform="matrix(0,-0.962233,1.303815,7.470678e-7,202.5558,821.6553)"
       cx="521.02045"
       cy="324.50958"
       fx="521.02045"
       fy="324.50958"
       r="17.921875" />
    <radialGradient
       inkscape:collect="always"
       xlink:href="#linearGradient1400"
       id="radialGradient2463"
       gradientUnits="userSpaceOnUse"
       gradientTransform="matrix(0,-0.566652,0.923271,0,319.4234,615.1804)"
       cx="508.64053"
       cy="331.66568"
       fx="508.64053"
       fy="331.66568"
       r="17.921875" />
    <radialGradient
       inkscape:collect="always"
       xlink:href="#linearGradient11719"
       id="radialGradient2465"
       gradientUnits="userSpaceOnUse"
       gradientTransform="matrix(2.909122,-5.066007e-7,0,9.289037,-840.4361,-2963.821)"
       cx="508.4433"
       cy="359.51443"
       fx="508.4433"
       fy="359.51443"
       r="13.046875" />
    <linearGradient
       inkscape:collect="always"
       xlink:href="#linearGradient3436"
       id="linearGradient2467"
       gradientUnits="userSpaceOnUse"
       gradientTransform="matrix(0.953057,0,0,1,69.01573,0)"
       x1="433.47342"
       y1="377.49115"
       x2="611.57281"
       y2="377.49115" />
    <linearGradient
       inkscape:collect="always"
       xlink:href="#linearGradient3636"
       id="linearGradient2469"
       gradientUnits="userSpaceOnUse"
       gradientTransform="matrix(0.953057,0,0,1,69.01573,0)"
       x1="573.27661"
       y1="-2.6483843"
       x2="573.27661"
       y2="541.64832" />
    <linearGradient
       inkscape:collect="always"
       xlink:href="#linearGradient4384"
       id="linearGradient2471"
       gradientUnits="userSpaceOnUse"
       gradientTransform="translate(40,0)"
       x1="659.43481"
       y1="530.42657"
       x2="575.83997"
       y2="444.69376" />
    <radialGradient
       inkscape:collect="always"
       xlink:href="#linearGradient11719"
       id="radialGradient2473"
       gradientUnits="userSpaceOnUse"
       gradientTransform="matrix(0,-7.961748,2.241016,-3.040753e-5,-341.8419,4380.83)"
       cx="497.21848"
       cy="439.83148"
       fx="497.21848"
       fy="439.83148"
       r="28.91695" />
    <radialGradient
       inkscape:collect="always"
       xlink:href="#linearGradient11719"
       id="radialGradient2475"
       gradientUnits="userSpaceOnUse"
       gradientTransform="matrix(0.388834,-6.370872,2.25698,0.137725,-542.2852,3529.604)"
       cx="494.12335"
       cy="423.26047"
       fx="494.12335"
       fy="423.26047"
       r="28.91695" />
    <radialGradient
       inkscape:collect="always"
       xlink:href="#linearGradient11719"
       id="radialGradient3205"
       gradientUnits="userSpaceOnUse"
       gradientTransform="matrix(4.5263033,-0.53788433,1.0314783,1.7072624,-2462.4333,172.79749)"
       cx="505.31256"
       cy="340.95706"
       fx="505.31256"
       fy="340.95706"
       r="17.921875" />
    <radialGradient
       inkscape:collect="always"
       xlink:href="#linearGradient11719"
       id="radialGradient3209"
       gradientUnits="userSpaceOnUse"
       gradientTransform="matrix(6.7855661,-0.23851477,1.6555647,9.2640833,-3833.1518,-2683.4677)"
       cx="499.6232"
       cy="357.74594"
       fx="499.6232"
       fy="357.74594"
       r="13.046875" />
    <radialGradient
       inkscape:collect="always"
       xlink:href="#linearGradient11719"
       id="radialGradient3211"
       gradientUnits="userSpaceOnUse"
       gradientTransform="matrix(5.5649711,-0.66131342,1.0314758,1.7072624,-2989.6436,235.44821)"
       cx="507.58319"
       cy="332.63242"
       fx="507.58319"
       fy="332.63242"
       r="17.921875" />
    <radialGradient
       inkscape:collect="always"
       xlink:href="#linearGradient11719"
       id="radialGradient3213"
       gradientUnits="userSpaceOnUse"
       gradientTransform="matrix(-3.4819957e-6,-2.5551207,3.6659118,0,-1041.2548,1764.6034)"
       cx="504.93213"
       cy="332.63242"
       fx="504.93213"
       fy="332.63242"
       r="17.921875" />
    <radialGradient
       inkscape:collect="always"
       xlink:href="#linearGradient11719"
       id="radialGradient3217"
       gradientUnits="userSpaceOnUse"
       gradientTransform="matrix(0,-1.1272036,3.4438624,8.7514875e-7,-940.82158,1048.582)"
       cx="506.72284"
       cy="326.56235"
       fx="506.72284"
       fy="326.56235"
       r="17.921875" />
    <linearGradient
       inkscape:collect="always"
       xlink:href="#linearGradient1400"
       id="linearGradient3219"
       gradientUnits="userSpaceOnUse"
       gradientTransform="matrix(2.5658283,0,0,1.1379412,-1119.2419,98.106667)"
       x1="502.01923"
       y1="353.44644"
       x2="504.57285"
       y2="323.71451" />
    <radialGradient
       inkscape:collect="always"
       xlink:href="#linearGradient11719"
       id="radialGradient3221"
       gradientUnits="userSpaceOnUse"
       gradientTransform="matrix(0,-1.0949645,3.3453653,8.5011926e-7,-907.41783,1033.1021)"
       cx="521.02045"
       cy="324.50958"
       fx="521.02045"
       fy="324.50958"
       r="17.921875" />
    <linearGradient
       inkscape:collect="always"
       xlink:href="#linearGradient4384"
       id="linearGradient3227"
       gradientUnits="userSpaceOnUse"
       gradientTransform="matrix(3.0226652,0,0,3.0226652,-1473.2847,-821.50163)"
       x1="659.43481"
       y1="530.42657"
       x2="575.83997"
       y2="444.69376" />
    <linearGradient
       inkscape:collect="always"
       xlink:href="#linearGradient3636"
       id="linearGradient3246"
       gradientUnits="userSpaceOnUse"
       gradientTransform="matrix(2.8807722,0,0,3.0226652,-1529.5799,-849.50163)"
       x1="573.27661"
       y1="-2.6483843"
       x2="573.27661"
       y2="541.64832" />
    <linearGradient
       inkscape:collect="always"
       xlink:href="#linearGradient3436"
       id="linearGradient3249"
       gradientUnits="userSpaceOnUse"
       gradientTransform="matrix(2.9104406,0,0,1.4819016,-1546.8921,-71.704017)"
       x1="433.47342"
       y1="377.49115"
       x2="611.57281"
       y2="377.49115" />
    <radialGradient
       inkscape:collect="always"
       xlink:href="#linearGradient11719"
       id="radialGradient3254"
       gradientUnits="userSpaceOnUse"
       gradientTransform="matrix(1.175315,-19.257013,6.8220949,0.4162966,-3377.3379,9819.3096)"
       cx="494.12335"
       cy="423.26047"
       fx="494.12335"
       fy="423.26047"
       r="28.91695" />
  </defs>
  <sodipodi:namedview
     id="base"
     pagecolor="#ffffff"
     bordercolor="#666666"
     borderopacity="1.0"
     inkscape:pageopacity="0.0"
     inkscape:pageshadow="2"
     inkscape:zoom="1"
     inkscape:cx="-28.289235"
     inkscape:cy="144.07055"
     inkscape:document-units="px"
     inkscape:current-layer="layer1"
     inkscape:window-width="1366"
     inkscape:window-height="719"
     inkscape:window-x="0"
     inkscape:window-y="25"
     showguides="true"
     inkscape:guide-bbox="true"
     width="300px"
     height="700px"
     units="cm"
     showgrid="false"
     inkscape:window-maximized="1"
     fit-margin-top="0"
     fit-margin-left="0"
     fit-margin-right="0"
     fit-margin-bottom="0" />
  <metadata
     id="metadata7">
    <rdf:RDF>
      <cc:Work
         rdf:about="">
        <dc:format>image/svg+xml</dc:format>
        <dc:type
           rdf:resource="http://purl.org/dc/dcmitype/StillImage" />
      </cc:Work>
    </rdf:RDF>
  </metadata>
  <g
     inkscape:label="Layer 1"
     inkscape:groupmode="layer"
     id="layer1"
     transform="translate(-48.668575,-421.74846)">
    <path
       sodipodi:nodetypes="csssssc"
       id="path4252"
       d="m 178.18643,518.33187 c -40.94847,0 -75.40486,13.80954 -74.20682,30.82399 l 7.26386,103.16145 c 0.57605,8.18138 30.03022,14.82624 66.94296,14.82625 36.91275,0 66.28439,-6.64487 66.86042,-14.82625 l 7.26388,-103.16145 c 1.19803,-17.01447 -33.17583,-30.82398 -74.1243,-30.82399 z"
       style="fill:#008080;fill-opacity:1;stroke:none"
       inkscape:connector-curvature="0" />
    <g
       id="g3164"
       transform="matrix(1.0601889,0,0,0.45304734,17.521958,453.5704)"
       style="fill:#000000">
      <path
         style="fill:#000000;fill-rule:evenodd;stroke:none"
         d="m 114.5513,45.628298 c 22.23082,24.954737 61.68039,21.227207 72.12489,-1.414213 l 15.55634,-77.781744 -101.82337,1.414213 14.14214,77.781744 z"
         id="path3166"
         sodipodi:nodetypes="ccccc"
         inkscape:connector-curvature="0" />
      <path
         style="fill:#000000;fill-opacity:1;stroke:none"
         d="m 151.54387,-62.323515 c 28.14586,-4.5e-5 50.97822,11.663028 50.97822,26.126354 4e-5,14.463325 -22.83232,26.2660661 -50.97822,26.2660661 -28.14591,4.48e-5 -50.97819,-11.8027411 -50.97819,-26.2660661 0,-14.463372 22.83232,-26.126354 50.97819,-26.126354 z"
         id="path3168"
         sodipodi:nodetypes="csssc"
         inkscape:connector-curvature="0" />
    </g>
    <g
       transform="matrix(-0.134786,-0.603324,0.712838,0,117.34651,953.08928)"
       id="g4084" />
    <g
       transform="matrix(-0.134786,-0.603324,0.712838,0,-473.11805,-367.62912)"
       id="g8602" />
    <path
       sodipodi:type="inkscape:offset"
       inkscape:radius="2.4076054"
       inkscape:original="M 573.90625 364.09375 C 567.35799 364.09374 562.03125 366.75712 562.03125 370.03125 L 562.03125 375.03125 C 562.03126 376.74328 563.48318 378.29413 565.8125 379.375 C 565.45142 384.34974 565.25 389.87654 565.25 395.71875 C 565.25001 396.96979 565.29437 398.18545 565.3125 399.40625 C 558.95357 402.35285 554.53051 408.44023 554.75 415.46875 L 556.625 475.5625 C 556.77376 480.32741 564.37182 484.1875 573.90625 484.1875 C 583.44065 484.18749 591.03871 480.3274 591.1875 475.5625 L 593.0625 415.46875 C 593.28207 408.43832 588.85543 402.35193 582.5 399.40625 C 582.51799 398.18546 582.5625 396.9698 582.5625 395.71875 C 582.56253 389.8768 582.35885 384.34962 582 379.375 C 582.10173 379.32767 582.21415 379.26782 582.3125 379.21875 C 584.46082 378.14722 585.78125 376.66831 585.78125 375.03125 L 585.78125 370.03125 C 585.78124 366.75714 580.45451 364.09375 573.90625 364.09375 z "
       style="fill:#000000;fill-opacity:1;stroke:#000000"
       id="path4528"
       d="m 573.90625,361.6875 c -3.60055,-10e-6 -6.88133,0.70629 -9.46875,2 -2.58742,1.29371 -4.8125,3.40103 -4.8125,6.34375 l 0,5 c 10e-6,2.51125 1.61685,4.40232 3.71875,5.71875 -0.30298,4.65348 -0.5,9.62874 -0.5,14.96875 10e-6,0.84626 0.0131,1.61627 0.0312,2.40625 -6.30879,3.53926 -10.76516,9.91592 -10.53125,17.40625 l 1.875,60.09375 c 0.11364,3.64003 2.89116,6.40785 6.4375,8.1875 3.54634,1.77965 8.15787,2.78125 13.25,2.78125 5.09211,-10e-6 9.70366,-1.0016 13.25,-2.78125 3.54634,-1.77965 6.32384,-4.54748 6.4375,-8.1875 l 1.875,-60.09375 c 0.234,-7.49259 -4.225,-13.86794 -10.53125,-17.40625 0.0181,-0.78987 0.0312,-1.55985 0.0312,-2.40625 3e-5,-5.40754 -0.22249,-10.45636 -0.53125,-15.15625 2.0413,-1.30695 3.75,-3.06224 3.75,-5.53125 l 0,-5 c -10e-6,-2.94272 -2.22508,-5.05004 -4.8125,-6.34375 -2.58742,-1.29371 -5.8682,-2 -9.46875,-2 z"
       transform="matrix(3.9308769,0,0,1.7215635,-2079.0802,-165.47248)" />
    <path
       style="fill:#ac4dac;fill-opacity:0.78021979;stroke:#000000;stroke-width:4.52244854000000007;stroke-linecap:round;stroke-linejoin:round;stroke-miterlimit:4;stroke-opacity:1;stroke-dasharray:none"
       d="m 178.18742,460.93268 c -25.35172,0 -46.02456,4.58423 -46.02456,10.20596 l 0,8.60568 c -5e-5,2.93957 5.65529,5.57632 14.67334,7.43219 -1.39787,8.5417 -2.16492,18.0262 -2.16492,28.05738 0,2.14806 0.0901,4.26926 0.16036,6.36541 -24.61866,5.05933 -41.6625,15.49145 -40.81273,27.55951 l 7.2164,103.16161 c 0.576,8.1814 30.03932,14.82881 66.95211,14.82881 36.91271,0 66.29592,-6.64741 66.87197,-14.82881 l 7.21645,-103.16161 c 0.85002,-12.07136 -16.20758,-22.50176 -40.8128,-27.55951 0.0697,-2.09615 0.16042,-4.21735 0.16042,-6.36541 0,-10.03071 -0.77563,-19.51588 -2.16493,-28.05738 0.39395,-0.0813 0.82191,-0.16468 1.20267,-0.24896 8.31719,-1.83983 13.47064,-4.37238 13.47064,-7.18323 l 0,-8.60568 c -4e-5,-5.62169 -20.59266,-10.20596 -45.94442,-10.20596 z"
       id="path4396"
       sodipodi:nodetypes="ccccscccscccscsccc"
       inkscape:connector-curvature="0" />
    <path
       style="fill:url(#radialGradient3205);fill-opacity:1;stroke:none"
       d="m 178.18525,460.93212 c -25.35168,-10e-6 -46.02454,4.58418 -46.02454,10.20591 l 0,8.60568 c -4e-5,5.62172 20.67294,10.17034 46.02454,10.17035 25.3517,10e-6 45.94437,-4.54863 45.94437,-10.17035 l 0,-8.60568 c -5e-5,-5.6217 -20.59265,-10.2059 -45.94437,-10.20591 z m 0,1.67136 c 16.60117,-10e-6 30.06831,2.96853 30.06831,6.64983 2e-5,3.6813 -13.46711,6.68541 -30.06831,6.68541 -16.60121,1e-5 -30.06829,-3.00411 -30.06829,-6.68541 0,-3.68131 13.4671,-6.64983 30.06829,-6.64983 z"
       id="path4197"
       inkscape:connector-curvature="0" />
    <path
       id="path4256"
       d="m 146.83404,487.14032 c -1.40142,8.55068 -2.16491,18.04824 -2.16491,28.09293 0,2.14805 0.0902,4.26926 0.16035,6.36537 10.09049,-2.07369 21.45141,-3.27159 33.35577,-3.27159 11.89652,0 23.19999,1.20046 33.27558,3.27159 0.0696,-2.09611 0.16037,-4.21732 0.16037,-6.36537 -2e-5,-10.03071 -0.77559,-19.51586 -2.1649,-28.05736 -8.1976,1.68864 -19.18079,2.73818 -31.27105,2.73817 -12.12569,0 -23.12198,-1.07629 -31.35121,-2.77374 z"
       style="fill:url(#radialGradient3209);fill-opacity:1;stroke:none"
       inkscape:connector-curvature="0" />
    <path
       id="path4272"
       d="m 178.18525,460.93212 c -25.35168,-10e-6 -46.02454,4.58418 -46.02454,10.20591 l 0,8.60568 c -4e-5,5.62172 20.67294,10.17034 46.02454,10.17035 25.3517,10e-6 45.94437,-4.54863 45.94437,-10.17035 l 0,-8.60568 c -5e-5,-5.6217 -20.59265,-10.2059 -45.94437,-10.20591 z m 0,1.67136 c 16.60117,-10e-6 30.06831,2.96853 30.06831,6.64983 2e-5,3.6813 -13.46711,6.68541 -30.06831,6.68541 -16.60121,1e-5 -30.06829,-3.00411 -30.06829,-6.68541 0,-3.68131 13.4671,-6.64983 30.06829,-6.64983 z"
       style="fill:url(#radialGradient3211);fill-opacity:1;stroke:none"
       inkscape:connector-curvature="0" />
    <path
       style="fill:url(#radialGradient3213);fill-opacity:1;stroke:none"
       d="m 178.18525,460.93212 c -25.35168,-10e-6 -46.02454,4.58418 -46.02454,10.20591 l 0,8.60568 c -4e-5,5.62172 20.67294,10.17034 46.02454,10.17035 25.3517,10e-6 45.94437,-4.54863 45.94437,-10.17035 l 0,-8.60568 c -5e-5,-5.6217 -20.59265,-10.2059 -45.94437,-10.20591 z m 0,1.67136 c 16.60117,-10e-6 30.06831,2.96853 30.06831,6.64983 2e-5,3.6813 -13.46711,6.68541 -30.06831,6.68541 -16.60121,1e-5 -30.06829,-3.00411 -30.06829,-6.68541 0,-3.68131 13.4671,-6.64983 30.06829,-6.64983 z"
       id="path4276"
       inkscape:connector-curvature="0" />
    <path
       id="path4280"
       d="m 178.18525,460.93212 c -25.35168,-10e-6 -46.02454,4.58418 -46.02454,10.20591 l 0,8.60568 c -4e-5,5.62172 20.67294,10.17034 46.02454,10.17035 25.3517,10e-6 45.94437,-4.54863 45.94437,-10.17035 l 0,-8.60568 c -5e-5,-5.6217 -20.59265,-10.2059 -45.94437,-10.20591 z m 0,1.67136 c 16.60117,-10e-6 30.06831,2.96853 30.06831,6.64983 2e-5,3.6813 -13.46711,6.68541 -30.06831,6.68541 -16.60121,1e-5 -30.06829,-3.00411 -30.06829,-6.68541 0,-3.68131 13.4671,-6.64983 30.06829,-6.64983 z"
       style="fill:#000000;fill-opacity:1;stroke:none"
       inkscape:connector-curvature="0" />
    <path
       style="fill:url(#radialGradient3217);fill-opacity:1;stroke:none"
       d="m 178.18525,462.60348 c 16.60117,-10e-6 30.06831,2.96853 30.06831,6.64983 2e-5,3.6813 -13.46711,6.68541 -30.06831,6.68541 -16.60121,1e-5 -30.06829,-3.00411 -30.06829,-6.68541 0,-3.68131 13.4671,-6.64983 30.06829,-6.64983 z"
       id="path4284"
       sodipodi:nodetypes="csssc"
       inkscape:connector-curvature="0" />
    <path
       style="fill:url(#linearGradient3219);fill-opacity:1;stroke:none"
       d="m 178.18525,462.60348 c 16.60117,-10e-6 30.06831,2.96853 30.06831,6.64983 2e-5,3.6813 -13.46711,6.68541 -30.06831,6.68541 -16.60121,1e-5 -30.06829,-3.00411 -30.06829,-6.68541 0,-3.68131 13.4671,-6.64983 30.06829,-6.64983 z"
       id="path4292"
       sodipodi:nodetypes="csssc"
       inkscape:connector-curvature="0" />
    <path
       sodipodi:nodetypes="csssc"
       id="path4288"
       d="m 178.18525,462.60348 c 16.60117,-10e-6 30.06831,2.96853 30.06831,6.64983 2e-5,3.6813 -13.46711,6.68541 -30.06831,6.68541 -16.60121,1e-5 -30.06829,-3.00411 -30.06829,-6.68541 0,-3.68131 13.4671,-6.64983 30.06829,-6.64983 z"
       style="fill:url(#radialGradient3221);fill-opacity:1;stroke:none"
       inkscape:connector-curvature="0" />
    <path
       style="fill:#000000;fill-opacity:1;stroke:none"
       d="m 132.64181,469.78672 c -0.13372,0.24856 -0.23919,0.49581 -0.32073,0.74761 -0.085,0.26245 -0.16037,0.54415 -0.16037,0.81263 l 0,7.5411 c -4e-5,5.13862 20.67294,9.29636 46.02454,9.29637 25.3517,2e-5 45.94437,-4.15775 45.94437,-9.29637 l 0,-7.5411 c 0,-0.26847 -0.0752,-0.55018 -0.16036,-0.81263 -0.0816,-0.2518 -0.18746,-0.49905 -0.32074,-0.74761 -3.11889,5.62806 -22.28285,9.94649 -45.46327,9.94647 -23.18104,-10e-6 -42.414,-4.31816 -45.54344,-9.94647 z"
       id="path4310"
       inkscape:connector-curvature="0" />
    <g
       transform="matrix(-0.134786,-0.603324,0.712838,0,856.22689,308.47083)"
       id="g30230" />
    <g
       transform="matrix(-0.134786,-0.603324,0.712838,0,265.76233,-1012.2476)"
       id="g30240" />
    <g
       id="g3160"
       transform="matrix(0.84886286,0,0,0.3764695,51.243018,453.27759)">
      <path
         sodipodi:nodetypes="ccccc"
         id="path2577"
         d="m 114.5513,45.628298 c 15.15975,24.954737 67.33724,22.641421 72.12489,-1.414213 l 15.55634,-77.781744 -101.82337,1.414213 14.14214,77.781744 z"
         style="fill:#666666;fill-rule:evenodd;stroke:none"
         inkscape:connector-curvature="0" />
      <path
         sodipodi:nodetypes="csssc"
         id="path2579"
         d="m 151.54387,-62.323515 c 28.14586,-4.5e-5 50.97822,11.663028 50.97822,26.126354 4e-5,14.463325 -22.83232,26.2660661 -50.97822,26.2660661 -28.14591,4.48e-5 -50.97819,-11.8027411 -50.97819,-26.2660661 0,-14.463372 22.83232,-26.126354 50.97819,-26.126354 z"
         style="fill:#333333;fill-opacity:1;stroke:none"
         inkscape:connector-curvature="0" />
    </g>
    <path
       sodipodi:type="arc"
       style="fill:#ffffff;fill-opacity:0.2692308;stroke-width:11;stroke-miterlimit:4;stroke-dasharray:none"
       id="path3841"
       sodipodi:cx="100.40916"
       sodipodi:cy="582.6203"
       sodipodi:rx="12.727921"
       sodipodi:ry="65.760933"
       d="m 113.13708,582.6203 a 12.727921,65.760933 0 1 1 -25.455844,0 12.727921,65.760933 0 1 1 25.455844,0 z"
       transform="matrix(0.84020978,0,0,0.76789256,48.466792,146.65186)" />
  </g>
</svg>
