<?xml version="1.0" encoding="UTF-8" standalone="no"?>
<svg
   xmlns:dc="http://purl.org/dc/elements/1.1/"
   xmlns:cc="http://creativecommons.org/ns#"
   xmlns:rdf="http://www.w3.org/1999/02/22-rdf-syntax-ns#"
   xmlns:svg="http://www.w3.org/2000/svg"
   xmlns="http://www.w3.org/2000/svg"
   xmlns:sodipodi="http://sodipodi.sourceforge.net/DTD/sodipodi-0.dtd"
   xmlns:inkscape="http://www.inkscape.org/namespaces/inkscape"
   id="svg3263"
   height="257.41437"
   width="255.97624"
   version="1.1"
   inkscape:version="0.48.4 r9939"
   sodipodi:docname="skull.svg">
  <defs
     id="defs17" />
  <sodipodi:namedview
     pagecolor="#ffffff"
     bordercolor="#666666"
     borderopacity="1"
     objecttolerance="10"
     gridtolerance="10"
     guidetolerance="10"
     inkscape:pageopacity="0"
     inkscape:pageshadow="2"
     inkscape:window-width="1366"
     inkscape:window-height="719"
     id="namedview15"
     showgrid="false"
     inkscape:zoom="1.1082576"
     inkscape:cx="-101.84261"
     inkscape:cy="133.7467"
     inkscape:window-x="0"
     inkscape:window-y="25"
     inkscape:window-maximized="1"
     inkscape:current-layer="layer1"
     fit-margin-top="0"
     fit-margin-left="0"
     fit-margin-right="0"
     fit-margin-bottom="0" />
  <metadata
     id="metadata13">
    <rdf:RDF>
      <cc:Work>
        <dc:format>image/svg+xml</dc:format>
        <dc:type
           rdf:resource="http://purl.org/dc/dcmitype/StillImage" />
        <cc:license
           rdf:resource="http://creativecommons.org/licenses/publicdomain/" />
        <dc:publisher>
          <cc:Agent
             rdf:about="http://openclipart.org/">
            <dc:title>Openclipart</dc:title>
          </cc:Agent>
        </dc:publisher>
        <dc:title>Skull and Crossbones Large Pink</dc:title>
        <dc:date>2011-09-02T23:21:41</dc:date>
        <dc:description>Remixed this because the first was so small and I changed the color.</dc:description>
        <dc:source>http://openclipart.org/detail/158953/skull-and-crossbones-large-pink-by-lil_mermaid_girl</dc:source>
        <dc:creator>
          <cc:Agent>
            <dc:title>Lil_Mermaid_Girl</dc:title>
          </cc:Agent>
        </dc:creator>
        <dc:subject>
          <rdf:Bag>
            <rdf:li>Halloween</rdf:li>
            <rdf:li>bones</rdf:li>
            <rdf:li>clip art</rdf:li>
            <rdf:li>clipart</rdf:li>
            <rdf:li>crossbones</rdf:li>
            <rdf:li>girly</rdf:li>
            <rdf:li>kawaii</rdf:li>
            <rdf:li>pink</rdf:li>
            <rdf:li>poison</rdf:li>
            <rdf:li>punk</rdf:li>
            <rdf:li>skull</rdf:li>
          </rdf:Bag>
        </dc:subject>
      </cc:Work>
      <cc:License
         rdf:about="http://creativecommons.org/licenses/publicdomain/">
        <cc:permits
           rdf:resource="http://creativecommons.org/ns#Reproduction" />
        <cc:permits
           rdf:resource="http://creativecommons.org/ns#Distribution" />
        <cc:permits
           rdf:resource="http://creativecommons.org/ns#DerivativeWorks" />
      </cc:License>
    </rdf:RDF>
  </metadata>
  <g
     id="layer1"
     transform="translate(-116.57045,-471.85167)">
    <path
       id="rect4357"
       d="m 153.32661,476.42953 c -3.76798,0 -7.64163,1.57414 -10.51667,4.97529 -3.59357,4.2501 -4.57925,10.05951 -3.68093,15.54737 -4.70889,-1.17614 -10.01455,0.65074 -13.6715,4.97529 -5.74977,6.80022 -5.74977,17.45362 0,24.25385 5.74976,6.80022 15.28328,6.80022 21.03304,0 1.14251,-1.35124 1.94062,-2.73457 2.62914,-4.35343 l 59.94528,70.89334 10.5192,-12.4373 -59.94528,-70.89707 c 1.36801,-0.81394 2.53827,-1.75722 3.68094,-3.10947 5.74976,-6.80022 5.74976,-18.07549 0,-24.87571 -2.87482,-3.40023 -6.22289,-4.97529 -9.99087,-4.97529 z m 182.98688,0 c -3.76798,0 -7.64164,1.57414 -10.51668,4.97529 -5.74977,6.80023 -5.74977,18.07549 0,24.87571 1.14251,1.35125 2.31211,2.29516 3.68094,3.10948 l -59.94214,70.89706 10.51605,12.4373 59.94529,-70.89707 c 0.6882,1.61794 1.48578,3.002 2.62914,4.35343 5.74976,6.80022 15.28328,6.80022 21.03305,0 5.74976,-6.80022 5.74976,-17.45362 0,-24.25384 -3.59356,-4.2501 -8.50558,-6.03773 -13.1457,-4.9753 0.89854,-5.48785 -0.61248,-11.29727 -4.20674,-15.54736 -2.87482,-3.40023 -6.22289,-4.9753 -9.99087,-4.9753 z M 209.06422,608.27084 149.12209,679.1679 c -0.68821,-1.61793 -1.48578,-3.00199 -2.62914,-4.35342 -5.74976,-6.80023 -15.28328,-6.80023 -21.03305,0 -5.74976,6.80022 -5.74976,17.45363 0,24.25385 3.65697,4.32507 8.96261,5.52963 13.6715,4.35343 -0.99446,5.56917 0.0167,11.84415 3.68093,16.16923 5.74977,6.80022 14.75749,6.80022 20.50725,0 5.74977,-6.80023 5.74977,-18.07549 0,-24.87571 -1.14251,-1.35125 -2.31215,-2.29516 -3.68093,-3.10948 l 59.94528,-70.89707 -10.51921,-12.43729 z m 70.98808,0 -10.51669,12.43804 59.94528,70.89707 c -1.36797,0.81394 -2.53826,1.75722 -3.68093,3.10947 -5.74976,6.80023 -5.74976,18.07548 0,24.87571 5.74977,6.80023 14.75749,6.80023 20.50725,0 3.65696,-4.32507 5.20125,-10.60005 4.20674,-16.16923 4.64012,1.06269 9.55212,-0.0995 13.14569,-4.35342 5.74976,-6.80023 5.74976,-17.45363 0,-24.25385 -5.74977,-6.80022 -15.28329,-6.80022 -21.03305,0 -1.14251,1.35124 -1.94061,2.73457 -2.62914,4.35343 l -59.94528,-70.89707 z"
       style="fill:#999999;stroke:#000000;stroke-width:9.14946364999999950;fill-opacity:1"
       inkscape:connector-curvature="0" />
    <path
       id="rect4317"
       d="m 249.92983,504.41643 c -43.12401,0 -78.34679,33.52102 -78.34679,75.25049 0,28.38756 16.56705,53.0096 40.49027,65.92065 v 36.07003 h 75.71936 v -36.07003 c 23.92165,-12.9118 39.96352,-37.53198 39.96352,-65.92065 0,-41.72873 -34.69919,-75.25049 -77.8232,-75.25049 z"
       style="fill:#999999;stroke:#000000;stroke-width:9.14946364999999950;fill-opacity:1"
       inkscape:connector-curvature="0" />
    <path
       id="path4319"
       d="m 238.787,601.75418 a 18.590824,21.9873 0 0 1 -37.18164,0 18.590824,21.9873 0 1 1 37.18164,0 z"
       inkscape:connector-curvature="0" />
    <path
       id="path4321"
       d="m 234.58452,653.89494 7.20029,-14.74968 7.20011,-14.74967 7.20029,14.74967 7.20028,14.74968 h -14.40057 z"
       inkscape:connector-curvature="0" />
    <path
       id="path4323"
       d="m 298.08568,603.24635 a 18.590825,21.987302 0 0 1 -37.18165,0 18.590825,21.987302 0 1 1 37.18165,0 z"
       inkscape:connector-curvature="0" />
    <path
       id="path4325"
       d="m 228.33628,667.89935 v 13.64224"
       inkscape:connector-curvature="0"
       style="fill:none;stroke:#000000;stroke-width:3.85215259" />
    <path
       id="path4327"
       d="m 241.84566,667.89935 v 13.64224"
       inkscape:connector-curvature="0"
       style="fill:none;stroke:#000000;stroke-width:3.85215259" />
    <path
       id="path4329"
       d="m 255.35503,667.89935 v 13.64224"
       inkscape:connector-curvature="0"
       style="fill:none;stroke:#000000;stroke-width:3.85215259" />
    <path
       id="path4331"
       d="m 268.8644,667.89935 v 13.64224"
       inkscape:connector-curvature="0"
       style="fill:none;stroke:#000000;stroke-width:3.85215259" />
  </g>
</svg>
